<svg width="180" height="180" viewBox="0 0 180 180" fill="none" xmlns="http://www.w3.org/2000/svg">
<rect width="180" height="180" fill="white"/>
<path d="M144.34 35.4109C146.804 37.0034 148.992 38.7396 150.913 40.6364C152.835 42.5322 154.489 44.5891 155.89 46.8225C157.289 49.0559 158.434 51.4668 159.335 54.0721C160.236 56.6775 160.893 59.4772 161.315 62.4884C161.842 66.2392 162.313 69.9245 162.729 73.604C163.145 77.284 163.505 80.9577 163.811 84.6848C164.116 88.4124 164.367 92.1933 164.563 96.0873C164.759 99.9819 164.901 103.989 164.989 108.169C165.052 111.204 164.848 114.047 164.37 116.717C163.892 119.388 163.14 121.886 162.105 124.229C161.07 126.573 159.752 128.762 158.144 130.814C156.535 132.867 154.635 134.782 152.437 136.579C149.577 138.914 146.846 141.081 144.162 143.138C141.476 145.196 138.836 147.144 136.162 149.04C133.485 150.936 130.773 152.78 127.942 154.631C125.11 156.483 122.16 158.341 119.008 160.265C117.794 161.006 116.582 161.662 115.369 162.233C109.814 164.849 89.9158 168.697 87.8002 168.803C86.5781 168.865 85.3486 168.843 84.1102 168.737C82.8717 168.632 81.6237 168.442 80.3646 168.169C79.105 167.896 77.8343 167.54 76.5493 167.1C75.2643 166.659 73.9656 166.135 72.6505 165.528C69.2336 163.948 66.0217 162.41 62.924 160.865C59.8246 159.318 56.8399 157.764 53.879 156.154C50.88 154.522 47.9111 152.834 44.9713 151.099C41.9634 149.323 38.8878 147.44 35.6532 145.401C33.1609 143.828 30.9481 142.108 29.0053 140.222C27.0615 138.336 25.3882 136.285 23.9743 134.052C22.5604 131.819 21.4064 129.405 20.5019 126.792C19.5979 124.18 18.9432 121.37 18.5285 118.346C18.0101 114.577 17.5478 110.877 17.1426 107.186C16.7373 103.495 16.3881 99.8139 16.0948 96.0831C15.8016 92.3524 15.5649 88.5719 15.3842 84.6822C15.203 80.7929 15.0783 76.7953 15.0085 72.6287C14.9567 69.5969 15.1755 66.7575 15.6716 64.0935C16.1677 61.4301 16.9423 58.9425 18.0017 56.613C19.0611 54.2845 20.4057 52.114 22.0431 50.0846C23.68 48.0562 25.609 46.1684 27.8382 44.4047C30.731 42.1121 33.49 39.9897 36.1984 37.9793C38.9047 35.9699 41.5602 34.0726 44.248 32.2297C46.9337 30.3883 49.651 28.6014 52.483 26.8129C55.3129 25.026 58.257 23.237 61.3965 21.3909C65.1927 19.158 83.9162 12.2096 89.6035 11.4567C90.4785 11.341 91.3561 11.268 92.2363 11.2384C93.4685 11.1967 94.7064 11.2395 95.9534 11.3668C97.1998 11.4936 98.4551 11.705 99.7211 11.9998C100.987 12.2946 102.264 12.674 103.553 13.1368C104.843 13.5997 106.145 14.1465 107.464 14.7769C110.888 16.4127 114.104 18.002 117.202 19.5955C120.298 21.1885 123.277 22.7863 126.229 24.439C129.92 26.5049 133.569 28.6564 137.354 30.9933C139.698 32.44 142.025 33.9157 144.34 35.4109Z" fill="white"/>
<path d="M131.247 136.978C128.827 138.693 126.393 140.349 123.804 142.041C121.254 143.709 118.586 145.391 115.646 147.185C114.793 147.706 113.941 148.167 113.113 148.557C112.316 148.932 111.518 149.253 110.74 149.51C109.991 149.757 109.234 149.954 108.493 150.094C107.765 150.232 107.027 150.32 106.298 150.356C106.03 150.369 105.761 150.376 105.491 150.376C105.02 150.376 104.539 150.356 104.061 150.314C103.288 150.247 102.49 150.125 101.689 149.951C100.854 149.769 99.9879 149.525 99.1124 149.223C98.202 148.911 97.2552 148.527 96.2973 148.083C93.0632 146.584 90.1197 145.169 87.3004 143.759C84.4266 142.321 81.7093 140.902 78.9924 139.42C76.2714 137.936 73.5937 136.412 70.8065 134.762C68.0607 133.136 65.2376 131.406 62.1763 129.471C60.3598 128.323 58.7446 127.066 57.3777 125.737C56.0452 124.441 54.933 123.077 53.9767 121.565C53.0114 120.039 52.2363 118.412 51.6054 116.589C50.9523 114.703 50.4636 112.595 50.1513 110.327C49.6536 106.716 49.2304 103.321 48.8579 99.9449C48.4722 96.445 48.1531 93.0799 47.8826 89.6566C47.6057 86.1499 47.3886 82.6944 47.2189 79.0926C47.0467 75.439 46.9305 71.7743 46.8639 67.8898" stroke="black" stroke-width="1.3" stroke-miterlimit="10" stroke-linecap="round" stroke-linejoin="round"/>
<path d="M78.109 32.3491C80.68 30.7233 83.3678 29.087 86.3261 27.3455C87.1799 26.8425 88.0332 26.3981 88.8627 26.0241C89.6563 25.6658 90.452 25.3615 91.2271 25.12C91.9769 24.8865 92.7303 24.7037 93.4679 24.5774C94.1928 24.4527 94.9294 24.3766 95.6564 24.3523C95.8371 24.3465 96.0178 24.3434 96.199 24.3434C96.7549 24.3434 97.3228 24.3724 97.8871 24.43C98.6606 24.5087 99.4564 24.6429 100.255 24.8294C101.09 25.0239 101.953 25.2807 102.825 25.5935C103.732 25.9189 104.675 26.3152 105.625 26.7696C108.835 28.3024 111.75 29.7448 114.542 31.1814C117.382 32.6428 120.065 34.0821 122.744 35.5816C125.423 37.0811 128.058 38.6186 130.801 40.2819C133.492 41.914 136.262 43.6523 139.269 45.5961C141.047 46.7443 142.624 47.9944 143.96 49.3121C145.26 50.596 146.348 51.946 147.284 53.4396C148.228 54.946 148.989 56.5512 149.609 58.3471C150.251 60.2037 150.736 62.2759 151.049 64.5061C151.547 68.053 151.972 71.3907 152.347 74.7104C152.735 78.1453 153.059 81.4612 153.336 84.8475C153.62 88.3093 153.845 91.7215 154.024 95.2789C154.206 98.886 154.334 102.513 154.415 106.37C154.461 108.599 154.314 110.684 153.977 112.563C153.657 114.356 153.173 115.97 152.498 117.498C151.836 118.997 151.008 120.37 149.968 121.699" stroke="black" stroke-width="1.3" stroke-miterlimit="10" stroke-linecap="round" stroke-linejoin="round"/>
<path d="M144.34 35.4109C146.804 37.0034 148.992 38.7396 150.913 40.6364C152.834 42.5322 154.489 44.5891 155.889 46.8225C157.289 49.0559 158.434 51.4668 159.335 54.0721C160.236 56.6775 160.893 59.4772 161.315 62.4884C161.842 66.2392 162.313 69.9245 162.729 73.604C163.145 77.2841 163.505 80.9577 163.811 84.6848C164.116 88.4124 164.366 92.1933 164.563 96.0874C164.759 99.9819 164.901 103.99 164.989 108.169C165.052 111.204 164.848 114.047 164.37 116.717C163.892 119.388 163.14 121.886 162.105 124.229C161.07 126.573 159.752 128.762 158.143 130.814C156.535 132.867 154.635 134.782 152.437 136.579C149.577 138.914 146.846 141.081 144.162 143.138C141.476 145.196 138.836 147.144 136.162 149.04C133.485 150.936 130.773 152.78 127.942 154.631C125.11 156.483 122.159 158.341 119.008 160.265C117.794 161.006 116.582 161.662 115.369 162.233C109.814 164.849 89.9157 168.697 87.8002 168.804C86.5781 168.865 85.3486 168.843 84.1101 168.737C82.8716 168.632 81.6236 168.442 80.3646 168.169C79.105 167.896 77.8342 167.54 76.5493 167.1C75.2643 166.659 73.9656 166.135 72.6505 165.528C69.2336 163.948 66.0217 162.41 62.9239 160.865C59.8245 159.318 56.8398 157.764 53.8789 156.154" stroke="black" stroke-width="2.3" stroke-miterlimit="10" stroke-linecap="round" stroke-linejoin="round"/>
<path d="M44.9702 151.097C41.9623 149.321 38.8867 147.438 35.6521 145.399C33.1598 143.827 30.947 142.106 29.0042 140.221C27.0604 138.335 25.3871 136.283 23.9732 134.051C22.5593 131.818 21.4053 129.403 20.5008 126.791C19.5968 124.179 18.9421 121.368 18.5274 118.344C18.009 114.575 17.5467 110.875 17.1415 107.184C16.7362 103.493 16.387 99.8123 16.0937 96.0815C15.8005 92.3508 15.5638 88.5704 15.3831 84.6806C15.2019 80.7913 15.0772 76.7937 15.0074 72.6271C14.9556 69.5953 15.1744 66.7559 15.6705 64.0919C16.1667 61.4285 16.9412 58.941 18.0006 56.6114C19.06 54.2829 20.4046 52.1124 22.042 50.083C23.6789 48.0546 25.6079 46.1668 27.8371 44.4031C30.7309 42.1121 33.49 39.9897 36.1984 37.9793C38.9046 35.9699 41.5602 34.0726 44.248 32.2297C46.9336 30.3883 49.651 28.6014 52.483 26.8129C55.3129 25.026 58.2569 23.237 61.3964 21.3909C65.1927 19.158 83.9162 12.2096 89.6035 11.4567C90.4784 11.341 91.3561 11.268 92.2363 11.2384C93.4684 11.1967 94.7064 11.2395 95.9533 11.3668C97.1997 11.4936 98.4551 11.705 99.7211 11.9998C100.986 12.2946 102.264 12.674 103.553 13.1368C104.843 13.5997 106.145 14.1465 107.464 14.7769C110.888 16.4127 114.104 18.002 117.202 19.5955C120.298 21.1885 123.277 22.7863 126.229 24.439C129.92 26.5049 133.569 28.6564 137.354 30.9933" stroke="black" stroke-width="2.3" stroke-miterlimit="10" stroke-linecap="round" stroke-linejoin="round"/>
<path d="M94.4496 161.778C94.3255 161.737 94.2008 161.694 94.0761 161.652C92.8064 161.215 91.523 160.696 90.2238 160.093C86.847 158.528 83.6732 157.004 80.6119 155.472C77.549 153.94 74.5991 152.4 71.6731 150.804C68.7454 149.208 65.841 147.554 62.8695 145.795C59.897 144.036 56.8573 142.17 53.6602 140.15C51.197 138.593 49.0096 136.888 47.089 135.021C45.1673 133.152 43.513 131.121 42.1145 128.91C40.7159 126.699 39.5746 124.308 38.6796 121.722C37.7845 119.135 37.1362 116.353 36.7247 113.359C36.21 109.629 35.7514 105.966 35.3488 102.312C34.9462 98.6588 34.5991 95.0147 34.3069 91.321C34.0152 87.6283 33.779 83.8859 33.5978 80.0352C33.4166 76.1856 33.2908 72.2281 33.2195 68.1037C33.1667 65.1027 33.3807 62.2923 33.8699 59.6558C34.3587 57.0198 35.1221 54.5582 36.1678 52.2529C37.2129 49.9488 38.5401 47.801 40.1564 45.7937C41.7721 43.787 43.6768 41.9198 45.878 40.1757C48.7353 37.9101 51.4601 35.8114 54.1347 33.8232C56.8071 31.8366 59.4294 29.9598 62.0833 28.138C63.9659 26.8457 65.8637 25.5808 67.807 24.3233" stroke="black" stroke-width="1.3" stroke-miterlimit="10" stroke-linecap="round" stroke-linejoin="round"/>
<path d="M95.8376 51.2073L92.4936 34.3542L102.08 34.0129L101.411 50.9981L95.8376 51.2073ZM55.3472 84.6832L56.1551 95.0676L71.8707 92.2266L71.3988 86.1948L55.3472 84.6832ZM146.43 80.9266L130.99 83.7216L131.467 89.7116L147.252 91.2011L146.43 80.9266ZM104.261 79.239C103.949 79.1153 103.631 79.0128 103.309 78.9404C102.694 78.8025 102.041 78.7312 101.349 78.7402C100.369 78.7529 99.4807 78.8823 98.6797 79.109C98.536 79.1497 98.3944 79.1999 98.2533 79.2522L70.0631 44.0163L59.8668 31.9692L45.8088 15.3591L21.0598 11.1624L27.7742 37.0415L41.7203 47.7196L54.6805 57.6428L93.1123 85.462C93.078 85.63 93.0479 85.7975 93.0267 85.9645C92.3489 91.2481 95.7843 97.4494 102.266 97.1699C109.024 96.8788 111.146 90.2954 109.502 85.0789C109.39 84.7234 109.25 84.3688 109.088 84.0191L129.527 65.6564L130.86 52.0712L118.558 55.1463L104.261 79.239ZM101.659 125.011L100.987 142.109L110.59 141.647L107.239 124.754L101.659 125.011Z" fill="url(#paint0_linear_316_16097)"/>
<defs>
<linearGradient id="paint0_linear_316_16097" x1="22.8408" y1="2.61273" x2="138.972" y2="120.484" gradientUnits="userSpaceOnUse">
<stop offset="0.196" stop-color="#8BC6FF" stop-opacity="0.4662"/>
<stop offset="1" stop-color="#8BC6FF"/>
</linearGradient>
</defs>
</svg>
