<svg width="176" height="176" viewBox="0 0 176 176" fill="none" xmlns="http://www.w3.org/2000/svg">
<path d="M16.5376 62.341C32.7372 25.9122 70.3116 4.87224 105.248 5.88143C140.333 6.89541 170.446 34.4233 173.498 66.5787C175.389 86.5113 171.828 100.798 171.053 104.949C170.276 109.098 167.825 109.457 164.616 109.486C162.105 118.896 161.49 121.386 154.517 126.303C147.543 131.219 142.543 131.906 142.543 131.906C142.543 131.906 139.857 138.597 129.249 145.02C118.638 151.444 88.6707 168.693 52.3566 169.913C16.0426 171.133 6.81398 157.683 5.53934 144.401C4.2647 131.121 4.88648 126.393 4.88648 126.393C4.88648 126.393 1.55759 124.255 1.99522 116.486C2.43047 108.713 6.0822 77.9332 9.70045 68.884C12.4123 62.0947 14.4403 62.4678 16.5376 62.341Z" fill="white"/>
<path d="M4.7113 93.6779C5.29242 97.4923 8.97764 99.4676 12.0674 96.6911C15.1595 93.9123 19.0337 82.761 19.5813 70.2776C17.704 69.1441 14.808 66.3652 14.808 66.3652C14.808 66.3652 14.7291 80.0228 12.3424 86.5179C10.9721 80.8837 9.32918 74.7401 9.994 69.2613C9.09482 71.6862 8.35108 75.0533 7.8417 77.5165C8.35108 81.9 8.8198 86.3601 10.269 90.3131C8.46826 93.7162 6.62924 93.0896 5.37851 88.7085C5.14176 90.5092 4.84522 91.8437 4.7113 93.6779Z" fill="url(#paint0_linear_389_19428)"/>
<path fill-rule="evenodd" clip-rule="evenodd" d="M31.5959 74.52C19.5191 90.9612 21.6116 108.837 27.2315 117.865C32.4927 126.314 44.2012 128.194 51.9471 119.759C60.4798 110.466 63.5815 91.6786 56.0484 77.3898C47.3794 77.2104 38.4115 75.7158 31.5959 74.52ZM33.9778 85.272C24.5507 101.177 35.1592 123.834 45.1195 115.273C41.8528 105.568 37.5123 93.764 33.9778 85.272ZM42.5303 89.3065C41.2648 86.3438 40.0475 83.4941 39.0357 80.9674C51.3277 74.0394 55.9145 97.2914 50.2133 109.347C48.7485 103.863 45.5061 96.2728 42.5303 89.3065Z" fill="url(#paint1_linear_389_19428)"/>
<path d="M15.963 132.111C15.963 132.111 15.9391 119.235 16.8096 115.454C18.0101 117.432 19.2178 118.353 19.2178 118.353C19.2178 118.353 19.9926 116.956 21.272 115.483C19.5287 113.663 16.659 108.431 15.7693 106.764C14.5664 107.307 12.6509 108.151 12.6509 108.151C12.6509 108.151 10.8788 119.551 11.2734 130.095C12.9403 131.142 15.963 132.111 15.963 132.111Z" fill="url(#paint2_linear_389_19428)"/>
<path d="M20.2366 133.574C20.2366 133.574 22.671 134.474 24.1729 134.909C25.6723 132.606 30.8091 131.506 33.3441 136.841C34.6761 136.975 36.3764 137.243 37.7778 137.408C36.4768 131.173 32.5094 129.105 29.4077 128.571C26.3108 128.038 21.571 129.105 20.2366 133.574Z" fill="url(#paint3_linear_389_19428)"/>
<path d="M60.3578 125.255C60.3578 125.255 60.4917 129.267 60.5371 130.963C63.8804 130.784 74.2951 129.597 78.3558 128.672C78.4443 126.665 78.461 123.31 78.461 123.31C78.461 123.31 74.7256 123.705 72.3963 123.872C72.4417 119.458 73.1903 106.214 72.7 102.435C75.0939 103.882 77.4088 105.296 77.4088 105.296C77.4088 105.296 78.7073 102.725 79.3746 100.986C76.6292 98.7262 72.272 95.7178 68.7972 94.1968C67.7258 95.4452 66.3005 97.7601 66.3005 97.7601C66.8075 106.03 66.6234 117.69 66.2886 124.451C63.5241 124.853 60.3578 125.255 60.3578 125.255Z" fill="url(#paint4_linear_389_19428)"/>
<path d="M72.1428 76.8254C70.1412 81.0989 71.9754 89.402 79.255 88.895C86.6015 88.3832 87.1707 79.169 85.2575 75.5771C84.552 75.7134 81.974 76.0314 81.974 76.0314C83.3611 77.7222 84.1287 79.8028 82.9378 82.804C81.4384 80.2356 79.3698 77.373 78.0975 76.4619C77.0525 76.5073 75.3928 76.6437 75.3928 76.6437C75.3928 76.6437 79.3698 81.7135 80.8692 85.1907C78.1884 86.8719 75.1202 84.4398 74.4601 81.735C73.8001 79.0303 74.8236 76.7584 74.8236 76.7584L72.1428 76.8254Z" fill="url(#paint5_linear_389_19428)"/>
<path d="M83.5955 132.183C82.2419 123.674 83.4544 110.043 93.9934 106.771C103.923 103.691 107.132 114.524 106.788 121.84C105.685 122.877 104.162 123.557 103.256 124.009C102.906 119.941 102.344 113.728 98.3076 112.035C94.8735 110.595 92.3003 114.048 92.3003 114.048C95.7296 118.032 97.8389 121.273 100.089 125.484C98.4224 126.462 95.6268 127.682 95.6268 127.682C94.1943 124.339 91.7048 120.438 89.4569 118.109C88.2372 122.217 88.3592 127.29 88.6557 130.348C86.8215 131.121 83.5955 132.183 83.5955 132.183Z" fill="url(#paint6_linear_389_19428)"/>
<path d="M93.5941 74.0418C94.51 81.0104 95.6866 88.8089 96.1051 92.8146C94.3115 93.2331 89.708 93.9505 89.708 93.9505C89.708 93.9505 90.6646 100.049 90.8439 102.022C96.7627 101.543 105.193 99.4508 109.975 96.7605C109.856 93.9505 109.258 88.7491 109.258 88.7491C109.258 88.7491 106.388 90.2438 103.937 90.7221C103.638 85.4609 102.562 75.8353 102.143 72.308C100.768 72.7863 97.0617 73.4439 93.5941 74.0418Z" fill="url(#paint7_linear_389_19428)"/>
<path d="M36.4185 33.9089C66.2876 4.88396 111.072 -4.47137 144.703 19.2063C178.14 42.7453 176.61 77.799 170.696 106.162C169.935 109.806 165.862 109.67 165.862 109.67" stroke="black" stroke-width="2.15111" stroke-linecap="round" stroke-linejoin="round"/>
<path d="M15.8923 62.2642C12.8217 62.2595 11.0257 64.9403 10.1337 67.9559C9.23928 70.9691 8.40466 74.4486 8.40466 74.4486" stroke="black" stroke-width="2.15111" stroke-linecap="round" stroke-linejoin="round"/>
<path d="M6.62551 81.4698C4.2532 92.7599 2.23243 111.549 2.01003 117.81C1.78762 124.073 3.36597 125.898 8.72042 128.899C25.6973 138.413 75.9439 150.846 129.742 106.013" stroke="black" stroke-width="2.15111" stroke-linecap="round" stroke-linejoin="round"/>
<path d="M15.8774 64.4186C18.9672 55.7544 25.656 45.3182 30.9746 39.7461" stroke="black" stroke-width="2.15111" stroke-linecap="round" stroke-linejoin="round"/>
<path d="M118.441 67.2526C73.3236 83.897 22.2663 77.861 14.1282 65.4877" stroke="black" stroke-width="2.15111" stroke-linecap="round" stroke-linejoin="round"/>
<path d="M138.081 70.9357C146.625 77.5695 143.892 94.0896 135.539 101.106" stroke="black" stroke-width="2.15111" stroke-linecap="round" stroke-linejoin="round"/>
<path d="M129.515 99.1185C140.231 92.7811 142.799 79.4823 133.107 72.6237C126.136 67.6901 114.82 71.9493 111.153 82.529" stroke="black" stroke-width="2.15111" stroke-linecap="round" stroke-linejoin="round"/>
<path d="M4.57373 129.225C5.29116 152.063 6.24774 164.738 34.2276 169.162C62.2075 173.586 97.6008 163.661 125.7 147.4" stroke="black" stroke-width="2.15111" stroke-linecap="round" stroke-linejoin="round"/>
<path d="M132.754 142.736C140.168 137.236 141.124 135.203 144.233 126.235C147.342 117.267 147.94 114.996 149.853 110.452C151.766 105.908 155.114 102.68 159.778 102.919C164.441 103.158 167.311 104.832 167.311 104.832" stroke="black" stroke-width="2.15111" stroke-linecap="round" stroke-linejoin="round"/>
<path d="M165.465 106.52C165.465 106.52 163.771 112.903 162.686 116.718C161.454 121.053 155.825 127.257 144.946 131.566" stroke="black" stroke-width="2.15111" stroke-linecap="round" stroke-linejoin="round"/>
<path d="M130.373 76.3642C125.394 72.2988 114.934 79.4898 116.208 88.4243C117.471 97.2582 127.568 96.4189 130.722 92.4204" stroke="black" stroke-width="1.27111" stroke-linecap="round" stroke-linejoin="round"/>
<path d="M83.3326 41.4154C97.8607 28.2386 115.801 20.1148 134.99 24.2568" stroke="black" stroke-width="1.27111" stroke-linecap="round" stroke-linejoin="round"/>
<defs>
<linearGradient id="paint0_linear_389_19428" x1="99.1314" y1="95.1437" x2="-0.3868" y2="93.884" gradientUnits="userSpaceOnUse">
<stop offset="0.0317206" stop-color="#DFC8FF"/>
<stop offset="1" stop-color="#DFC8FF" stop-opacity="0.17"/>
</linearGradient>
<linearGradient id="paint1_linear_389_19428" x1="99.1314" y1="95.1437" x2="-0.3868" y2="93.884" gradientUnits="userSpaceOnUse">
<stop offset="0.0317206" stop-color="#DFC8FF"/>
<stop offset="1" stop-color="#DFC8FF" stop-opacity="0.17"/>
</linearGradient>
<linearGradient id="paint2_linear_389_19428" x1="99.1314" y1="95.1437" x2="-0.3868" y2="93.884" gradientUnits="userSpaceOnUse">
<stop offset="0.0317206" stop-color="#DFC8FF"/>
<stop offset="1" stop-color="#DFC8FF" stop-opacity="0.17"/>
</linearGradient>
<linearGradient id="paint3_linear_389_19428" x1="99.1314" y1="95.1437" x2="-0.3868" y2="93.884" gradientUnits="userSpaceOnUse">
<stop offset="0.0317206" stop-color="#DFC8FF"/>
<stop offset="1" stop-color="#DFC8FF" stop-opacity="0.17"/>
</linearGradient>
<linearGradient id="paint4_linear_389_19428" x1="99.1314" y1="95.1437" x2="-0.3868" y2="93.884" gradientUnits="userSpaceOnUse">
<stop offset="0.0317206" stop-color="#DFC8FF"/>
<stop offset="1" stop-color="#DFC8FF" stop-opacity="0.17"/>
</linearGradient>
<linearGradient id="paint5_linear_389_19428" x1="99.1314" y1="95.1437" x2="-0.3868" y2="93.884" gradientUnits="userSpaceOnUse">
<stop offset="0.0317206" stop-color="#DFC8FF"/>
<stop offset="1" stop-color="#DFC8FF" stop-opacity="0.17"/>
</linearGradient>
<linearGradient id="paint6_linear_389_19428" x1="99.1314" y1="95.1437" x2="-0.3868" y2="93.884" gradientUnits="userSpaceOnUse">
<stop offset="0.0317206" stop-color="#DFC8FF"/>
<stop offset="1" stop-color="#DFC8FF" stop-opacity="0.17"/>
</linearGradient>
<linearGradient id="paint7_linear_389_19428" x1="99.1314" y1="95.1437" x2="-0.3868" y2="93.884" gradientUnits="userSpaceOnUse">
<stop offset="0.0317206" stop-color="#DFC8FF"/>
<stop offset="1" stop-color="#DFC8FF" stop-opacity="0.17"/>
</linearGradient>
</defs>
</svg>
